<?xml version="1.0" standalone="no"?>
<!DOCTYPE svg PUBLIC "-//W3C//DTD SVG 20010904//EN"
 "http://www.w3.org/TR/2001/REC-SVG-20010904/DTD/svg10.dtd">
<svg version="1.0" xmlns="http://www.w3.org/2000/svg"
 width="960.000000pt" height="960.000000pt" viewBox="0 0 960.000000 960.000000"
 preserveAspectRatio="xMidYMid meet">
<metadata>
Created by potrace 1.11, written by Peter Selinger 2001-2013
</metadata>
<g transform="translate(0.000000,960.000000) scale(0.100000,-0.100000)"
fill="#000000" stroke="none">
<path d="M4923 9087 c38 -105 70 -306 70 -447 0 -141 -11 -200 -77 -420 -74
-245 -72 -317 12 -390 125 -111 307 -32 371 162 45 136 51 312 16 449 -23 86
-100 247 -166 344 -82 120 -233 323 -226 302z"/>
<path d="M4776 8666 c-184 -108 -354 -259 -446 -395 -170 -254 -235 -584 -175
-899 21 -110 45 -177 158 -442 131 -310 159 -416 160 -605 1 -153 -17 -244
-69 -347 -58 -115 -186 -205 -324 -228 -205 -35 -421 100 -480 299 -24 82 -27
166 -17 396 6 120 5 210 -2 270 -15 120 -53 305 -63 305 -4 0 -7 -3 -6 -7 14
-52 -116 -516 -208 -747 -81 -202 -326 -652 -549 -1011 -265 -426 -358 -608
-463 -900 -97 -274 -138 -475 -149 -730 -11 -275 33 -544 157 -950 68 -227
192 -484 366 -765 57 -92 107 -144 284 -296 330 -285 620 -459 973 -585 132
-48 156 -49 62 -5 -344 162 -588 397 -734 707 -62 132 -135 350 -152 454 -7
44 -13 148 -13 230 -1 175 22 311 80 477 46 132 85 207 179 348 134 201 257
473 309 685 15 61 32 126 37 146 5 20 9 46 9 58 0 41 24 16 43 -45 38 -123 33
-294 -15 -494 -30 -126 -29 -276 3 -355 34 -83 81 -116 178 -123 151 -10 235
57 283 227 15 51 21 119 28 301 5 129 13 249 18 265 49 157 225 364 487 577
204 165 300 278 363 430 22 52 26 79 26 153 0 80 -4 99 -33 165 -17 41 -62
119 -98 173 -36 54 -62 101 -59 104 3 4 23 -1 43 -11 156 -74 321 -230 394
-371 74 -142 84 -185 84 -365 0 -191 -9 -224 -141 -492 -51 -103 -103 -218
-114 -255 -43 -138 -36 -304 19 -410 26 -51 94 -118 159 -155 46 -26 61 -30
102 -25 103 12 219 97 267 196 l28 56 1 261 c2 230 6 292 30 402 9 43 22 21
44 -75 60 -264 176 -549 342 -843 278 -493 368 -920 289 -1380 -38 -218 -93
-355 -215 -524 -89 -124 -171 -218 -241 -278 -73 -63 -57 -58 77 23 428 258
792 616 1091 1075 182 279 323 563 367 737 86 339 44 831 -105 1233 -96 258
-295 613 -488 867 -134 176 -315 452 -399 607 -63 116 -159 335 -196 450 -26
77 -70 249 -108 418 -8 38 -31 9 -57 -72 -20 -64 -22 -91 -22 -266 1 -186 2
-202 34 -335 74 -309 33 -531 -112 -608 -56 -29 -208 -31 -279 -4 -61 24 -129
97 -156 170 -49 130 -64 244 -72 562 -9 344 -13 365 -92 516 -91 176 -216 331
-467 579 -252 250 -328 344 -401 494 -98 202 -118 361 -65 526 38 119 91 228
169 354 38 59 66 109 64 110 -1 2 -12 -1 -22 -8z"/>
<path d="M4933 2303 c9 -2 23 -2 30 0 6 3 -1 5 -18 5 -16 0 -22 -2 -12 -5z"/>
<path d="M5058 2293 c7 -3 16 -2 19 1 4 3 -2 6 -13 5 -11 0 -14 -3 -6 -6z"/>
<path d="M5177 2256 c51 -18 116 -47 145 -64 29 -18 42 -23 28 -11 -47 40
-207 110 -249 108 -9 0 25 -15 76 -33z"/>
<path d="M4611 2220 c-173 -95 -305 -263 -357 -451 -24 -88 -24 -280 0 -368
39 -142 134 -290 244 -377 70 -55 195 -118 282 -141 86 -23 252 -23 340 0 265
69 472 285 529 551 l20 89 -32 -31 c-26 -25 -36 -29 -50 -20 -28 15 -49 74
-58 158 -12 118 -18 138 -39 133 -23 -6 -51 34 -44 63 4 16 0 26 -15 34 -12 6
-21 21 -21 34 0 13 -8 34 -18 47 -10 13 -26 45 -36 72 -18 47 -47 74 -67 61
-7 -4 0 -17 18 -36 23 -24 25 -30 13 -38 -21 -14 -24 -13 -51 16 -13 14 -41
35 -61 45 -43 22 -47 33 -17 50 21 11 21 11 2 22 -11 7 -39 27 -63 44 -27 21
-50 31 -64 28 -62 -12 -158 -16 -170 -6 -16 14 -98 -1 -104 -18 -2 -6 -11 -11
-19 -11 -17 0 -29 -9 -97 -79 l-43 -44 -22 22 c-27 27 -27 39 4 63 14 11 25
25 25 33 0 7 10 19 22 27 18 12 21 19 13 36 -10 21 -10 21 -64 -8z m471 -209
c64 -27 71 -40 71 -129 -1 -64 -4 -78 -18 -80 -22 -5 -53 24 -70 64 -7 17 -25
40 -40 50 -15 11 -36 28 -47 38 -20 18 -22 18 -33 2 -11 -15 -14 -15 -25 -1
-21 25 3 67 34 59 13 -3 27 -1 30 5 10 16 49 13 98 -8z m-377 -29 c6 -19 28
-47 50 -63 43 -32 53 -32 35 1 -7 12 -8 26 -3 30 11 11 50 -21 55 -46 2 -11
11 -18 20 -16 9 1 19 -2 23 -8 3 -5 13 -10 22 -10 12 0 13 3 3 15 -18 22 -4
36 25 25 27 -10 95 -74 95 -88 0 -18 -26 -31 -48 -25 -16 4 -22 13 -22 34 0
43 -15 43 -59 -1 -49 -49 -56 -95 -17 -110 13 -5 27 -18 31 -29 15 -47 35 -15
35 55 0 47 6 52 36 29 10 -8 27 -15 36 -15 19 0 88 -56 88 -71 0 -5 -16 -19
-36 -31 l-36 -21 32 -14 c27 -11 30 -16 20 -28 -6 -8 -21 -17 -32 -21 -30 -9
-66 -54 -74 -91 -3 -18 -17 -39 -30 -48 -19 -12 -24 -24 -24 -57 l0 -41 -25
27 c-20 22 -33 26 -75 26 -72 0 -90 -12 -90 -60 0 -35 3 -40 27 -46 14 -4 34
-2 43 4 21 13 30 6 30 -24 0 -16 9 -25 30 -33 24 -8 30 -16 30 -38 0 -16 5
-34 12 -41 9 -9 8 -12 -6 -12 -9 0 -34 18 -53 40 -23 25 -56 47 -90 60 -64 24
-133 76 -133 100 0 10 -11 42 -24 71 -19 41 -25 48 -25 30 -1 -33 -15 -16 -29
35 -18 63 -14 133 10 184 21 45 33 99 44 197 6 50 5 53 -23 70 -25 15 -29 22
-22 41 5 12 17 25 26 28 10 3 25 9 33 14 8 5 28 8 44 7 24 -2 32 -9 41 -35z
m525 -53 c0 -23 -27 -36 -42 -21 -9 9 -7 17 7 32 20 22 35 18 35 -11z m124 16
c38 -16 52 -52 16 -42 -10 3 -21 0 -23 -7 -2 -6 -11 3 -20 21 -26 49 -25 50
27 28z m-354 -675 c0 -5 -9 -10 -20 -10 -11 0 -20 5 -20 10 0 6 9 10 20 10 11
0 20 -4 20 -10z m60 -10 c0 -5 -2 -10 -4 -10 -3 0 -8 5 -11 10 -3 6 -1 10 4
10 6 0 11 -4 11 -10z m161 -94 c36 -7 75 -19 87 -27 17 -11 30 -11 68 -1 26 7
51 9 55 5 15 -15 -43 -115 -85 -145 -60 -43 -154 -86 -230 -103 -71 -17 -86
-14 -86 13 0 9 -25 37 -55 62 -60 49 -68 75 -35 105 25 22 26 44 3 61 -17 12
-16 13 7 14 14 0 34 7 44 15 25 19 138 20 227 1z"/>
<path d="M5488 2029 c2 -19 9 -40 15 -48 8 -10 7 -16 -3 -25 -20 -15 -25 -71
-10 -107 15 -35 30 -38 30 -6 0 13 6 32 14 42 10 14 11 25 4 39 -5 10 -7 31
-4 47 4 23 -1 36 -23 61 l-28 32 5 -35z"/>
</g>
</svg>
